<?xml version="1.0" encoding="UTF-8"?>
<svg xmlns="http://www.w3.org/2000/svg" version="1.1" xmlns:xlink="http://www.w3.org/1999/xlink" viewBox="0 0 500 500">
  <defs>
    <style>
      .cls-1 {
        fill: #0b74b8;
      }

      .cls-1, .cls-2, .cls-3, .cls-4, .cls-5, .cls-6, .cls-7 {
        stroke-width: 0px;
      }

      .cls-2 {
        fill: url(#linear-gradient);
        opacity: .2;
      }

      .cls-2, .cls-4 {
        mix-blend-mode: multiply;
      }

      .cls-3 {
        fill: #000;
      }

      .cls-4 {
        fill: url(#linear-gradient-2);
        opacity: .3;
      }

      .cls-8 {
        isolation: isolate;
      }

      .cls-5 {
        fill: #2eaade;
      }

      .cls-6 {
        fill: #ebebeb;
      }

      .cls-7 {
        fill: #fff;
      }
    </style>
    <linearGradient id="linear-gradient" x1="244.8" y1="242.8" x2="172.6" y2="277.7" gradientUnits="userSpaceOnUse">
      <stop offset="0" stop-color="#fff"/>
      <stop offset="1" stop-color="#000"/>
    </linearGradient>
    <linearGradient id="linear-gradient-2" x1="250" y1="220.3" x2="348.4" y2="220.3" xlink:href="#linear-gradient"/>
  </defs>
  <g class="cls-8">
    <g id="Layer_1" data-name="Layer 1">
      <g>
        <g>
          <polygon class="cls-3" points="167.9 30 167.9 46.7 167.9 68.5 167.9 85.3 186.4 85.3 212.3 85.3 212.3 68.5 186.4 68.5 186.4 46.7 212.3 46.7 212.3 30 186.4 30 167.9 30"/>
          <polygon class="cls-3" points="221.1 44.8 245.7 70.5 221.1 70.5 221.1 85.3 271.5 85.3 271.5 70.5 247.9 44.8 271.5 44.8 271.5 30 221.1 30 221.1 44.8"/>
          <polygon class="cls-3" points="332.1 30 281.6 30 281.6 44.8 306.3 70.5 281.6 70.5 281.6 85.3 332.1 85.3 332.1 70.5 308.5 44.8 332.1 44.8 332.1 30"/>
        </g>
        <g>
          <g>
            <polygon class="cls-1" points="249.8 470 121.6 434.4 93.1 114 406.9 114 378.3 434.4 249.8 470"/>
            <polygon class="cls-5" points="353.9 414 378.3 140.2 250 140.2 250 442.8 353.9 414"/>
          </g>
          <g>
            <polygon class="cls-6" points="162.2 298.9 344.9 219.3 348.4 180 158.7 259.6 162.2 298.9"/>
            <polygon class="cls-2" points="162.2 298.9 344.9 219.3 348.4 180 158.7 259.6 162.2 298.9"/>
            <polygon class="cls-6" points="250 180 151.6 180 152.5 190.6 155.1 219.3 250.1 219.3 250.1 180 250 180"/>
            <polygon class="cls-7" points="341.3 259.6 250 259.6 250 298.9 298.4 298.9 293.8 349.8 250 361.7 250 402.5 330.5 380.2 341.3 259.6"/>
            <polygon class="cls-7" points="250 221.3 250 260.6 344.9 219.3 348.4 180 250 221.3"/>
            <polygon class="cls-4" points="250 221.3 250 260.6 344.9 219.3 348.4 180 250 221.3"/>
            <polygon class="cls-6" points="158.7 259.6 162.2 298.9 250.1 298.9 250.1 259.6 158.7 259.6"/>
            <polygon class="cls-7" points="348.4 180 250 180 250 219.2 250 219.3 344.8 219.3 344.8 219.3 344.9 219.3 348.4 180"/>
            <polygon class="cls-6" points="250 361.7 250 361.7 206.2 349.8 203.4 318.5 182.2 318.5 164 318.5 169.5 380.2 250 402.6 250 402.6 250 361.7"/>
          </g>
        </g>
      </g>
    </g>
  </g>
</svg>