<?xml version="1.0" encoding="UTF-8"?>
<svg xmlns="http://www.w3.org/2000/svg" version="1.1" xmlns:xlink="http://www.w3.org/1999/xlink" viewBox="0 0 500 500">
  <defs>
    <style>
      .cls-1 {
        fill: #0b74b8;
      }

      .cls-1, .cls-2, .cls-3, .cls-4, .cls-5, .cls-6, .cls-7, .cls-8, .cls-9, .cls-10 {
        stroke-width: 0px;
      }

      .cls-2 {
        fill: url(#linear-gradient);
        opacity: .2;
      }

      .cls-2, .cls-5 {
        mix-blend-mode: multiply;
      }

      .cls-3 {
        fill: #000;
      }

      .cls-4 {
        fill: #00d8ff;
      }

      .cls-5 {
        fill: url(#linear-gradient-2);
        opacity: .3;
      }

      .cls-11 {
        isolation: isolate;
      }

      .cls-6 {
        fill: #2eaade;
      }

      .cls-7 {
        fill: #ebebeb;
      }

      .cls-8 {
        fill: #dab92d;
      }

      .cls-9 {
        fill: #fff;
      }

      .cls-12 {
        display: none;
      }

      .cls-10 {
        fill: #ffd83a;
      }
    </style>
    <linearGradient id="linear-gradient" x1="244.8" y1="242.8" x2="172.6" y2="277.7" gradientUnits="userSpaceOnUse">
      <stop offset="0" stop-color="#fff"/>
      <stop offset="1" stop-color="#000"/>
    </linearGradient>
    <linearGradient id="linear-gradient-2" x1="250" y1="220.3" x2="348.4" y2="220.3" xlink:href="#linear-gradient"/>
  </defs>
  <g class="cls-11">
    <g id="Layer_1" data-name="Layer 1" class="cls-12">
      <g class="cls-12">
        <g>
          <polygon class="cls-3" points="167.9 30 167.9 46.7 167.9 68.5 167.9 85.3 186.4 85.3 212.3 85.3 212.3 68.5 186.4 68.5 186.4 46.7 212.3 46.7 212.3 30 186.4 30 167.9 30"/>
          <polygon class="cls-3" points="221.1 44.8 245.7 70.5 221.1 70.5 221.1 85.3 271.5 85.3 271.5 70.5 247.9 44.8 271.5 44.8 271.5 30 221.1 30 221.1 44.8"/>
          <polygon class="cls-3" points="332.1 30 281.6 30 281.6 44.8 306.3 70.5 281.6 70.5 281.6 85.3 332.1 85.3 332.1 70.5 308.5 44.8 332.1 44.8 332.1 30"/>
        </g>
        <g>
          <g>
            <polygon class="cls-1" points="249.8 470 121.6 434.4 93.1 114 406.9 114 378.3 434.4 249.8 470"/>
            <polygon class="cls-6" points="353.9 414 378.3 140.2 250 140.2 250 442.8 353.9 414"/>
          </g>
          <g>
            <polygon class="cls-7" points="162.2 298.9 344.9 219.3 348.4 180 158.7 259.6 162.2 298.9"/>
            <polygon class="cls-2" points="162.2 298.9 344.9 219.3 348.4 180 158.7 259.6 162.2 298.9"/>
            <polygon class="cls-7" points="250 180 151.6 180 152.5 190.6 155.1 219.3 250.1 219.3 250.1 180 250 180"/>
            <polygon class="cls-9" points="341.3 259.6 250 259.6 250 298.9 298.4 298.9 293.8 349.8 250 361.7 250 402.5 330.5 380.2 341.3 259.6"/>
            <polygon class="cls-9" points="250 221.3 250 260.6 344.9 219.3 348.4 180 250 221.3"/>
            <polygon class="cls-5" points="250 221.3 250 260.6 344.9 219.3 348.4 180 250 221.3"/>
            <polygon class="cls-7" points="158.7 259.6 162.2 298.9 250.1 298.9 250.1 259.6 158.7 259.6"/>
            <polygon class="cls-9" points="348.4 180 250 180 250 219.2 250 219.3 344.8 219.3 344.8 219.3 344.9 219.3 348.4 180"/>
            <polygon class="cls-7" points="250 361.7 250 361.7 206.2 349.8 203.4 318.5 182.2 318.5 164 318.5 169.5 380.2 250 402.6 250 402.6 250 361.7"/>
          </g>
        </g>
      </g>
    </g>
    <g id="Layer_2" data-name="Layer 2" class="cls-12">
      <g class="cls-12">
        <g>
          <path class="cls-4" d="M289.5,250c0,21.8-17.7,39.5-39.5,39.5s-39.5-17.7-39.5-39.5,17.7-39.5,39.5-39.5,39.5,17.7,39.5,39.5Z"/>
          <path class="cls-4" d="M250,160.3c-121.5,0-220,40.2-220,89.7s98.5,89.7,220,89.7,220-40.2,220-89.7-98.5-89.7-220-89.7ZM398.7,296.5c-39.4,16.1-92.2,24.9-148.7,24.9s-109.2-8.9-148.7-24.9c-33.2-13.5-53-30.9-53-46.5s19.8-32.9,53-46.5c39.4-16.1,92.2-24.9,148.7-24.9s109.2,8.9,148.7,24.9c33.2,13.5,53,30.9,53,46.5s-19.8,32.9-53,46.5Z"/>
          <path class="cls-4" d="M172.3,205.1c-60.7,105.2-75.2,210.6-32.3,235.4,42.9,24.8,126.9-40.4,187.7-145.7,60.7-105.2,75.2-210.6,32.3-235.4-42.9-24.8-126.9,40.4-187.7,145.7ZM364.6,144.5c-5.8,42.2-24.5,92.3-52.7,141.2-28.2,48.9-62.3,90.2-95.9,116.3-28.3,22-53.3,30.5-66.8,22.7-13.5-7.8-18.6-33.6-13.7-69.2,5.8-42.2,24.5-92.3,52.7-141.2,28.2-48.9,62.3-90.2,95.9-116.3,28.3-22,53.3-30.5,66.8-22.7,13.5,7.8,18.6,33.6,13.7,69.2Z"/>
          <path class="cls-4" d="M140,59.5c-42.9,24.8-28.4,130.1,32.3,235.4,60.7,105.2,144.8,170.4,187.7,145.7,42.9-24.8,28.4-130.2-32.3-235.4C266.9,99.9,182.9,34.7,140,59.5ZM149.1,75.3c13.5-7.8,38.4.7,66.8,22.7,33.6,26.1,67.7,67.4,95.9,116.3,28.2,48.9,47,99,52.7,141.2,4.9,35.5-.3,61.4-13.7,69.2-13.5,7.8-38.4-.7-66.8-22.7-33.6-26.1-67.7-67.4-95.9-116.3-28.2-48.9-47-99-52.7-141.2-4.9-35.5.3-61.4,13.7-69.2Z"/>
        </g>
      </g>
    </g>
    <g id="Layer_3" data-name="Layer 3">
      <g>
        <g>
          <g>
            <polygon class="cls-8" points="249 470 120.9 434.1 93.1 113.7 406.9 114.4 377.6 434.7 249 470"/>
            <polygon class="cls-10" points="353.2 414.2 378.2 140.5 249.9 140.3 249.3 442.8 353.2 414.2"/>
          </g>
          <polygon class="cls-9" points="256.9 179.6 256.7 298.4 296 298.5 296.4 298.5 291.7 349.4 256.5 358.8 256.4 399.6 328.4 379.9 339.4 259.3 296 259.2 296.1 218.9 343 219 343.1 219 346.7 179.8 256.9 179.6"/>
          <polygon class="cls-9" points="203 179.4 208.5 351.5 196.5 348.6 194 317.9 162 317.8 167.3 379.5 239.2 399.6 239.7 179.5 203 179.4"/>
        </g>
        <g>
          <polygon class="cls-3" points="302 30.2 251.5 30.1 251.5 44.8 276.1 70.6 251.4 70.6 251.4 85.3 301.8 85.4 301.9 70.7 278.3 44.9 301.9 45 302 30.2"/>
          <polygon class="cls-3" points="224.2 68.5 216.8 68.5 216.8 64.9 198.3 64.8 198.3 68.5 198.3 81.4 198.3 85.2 242.6 85.3 242.7 30 224.3 30 224.2 68.5"/>
        </g>
      </g>
    </g>
  </g>
</svg>